<mxfile host="Electron" agent="Mozilla/5.0 (Windows NT 10.0; Win64; x64) AppleWebKit/537.36 (KHTML, like Gecko) draw.io/24.7.17 Chrome/128.0.6613.36 Electron/32.0.1 Safari/537.36" version="24.7.17">
  <diagram id="R2lEEEUBdFMjLlhIrx00" name="Page-1">
    <mxGraphModel dx="1627" dy="-199" grid="1" gridSize="10" guides="1" tooltips="1" connect="1" arrows="1" fold="1" page="1" pageScale="1" pageWidth="850" pageHeight="1100" math="0" shadow="0" extFonts="Permanent Marker^https://fonts.googleapis.com/css?family=Permanent+Marker">
      <root>
        <mxCell id="0" />
        <mxCell id="1" parent="0" />
        <mxCell id="tTRSB0c5YFFnFM2bXKiH-1" value="用户账户表" style="swimlane;childLayout=stackLayout;horizontal=1;startSize=50;horizontalStack=0;rounded=1;fontSize=14;fontStyle=0;strokeWidth=2;resizeParent=0;resizeLast=1;shadow=0;dashed=0;align=center;arcSize=4;whiteSpace=wrap;html=1;" parent="1" vertex="1">
          <mxGeometry x="-120" y="1590" width="160" height="180" as="geometry" />
        </mxCell>
        <mxCell id="tTRSB0c5YFFnFM2bXKiH-2" value="id bigint 用户账户id&lt;br&gt;phone bigint 手机号&lt;div&gt;username varchar 昵称&lt;/div&gt;&lt;div&gt;uuid varchar 唯一账号&lt;br&gt;password varchar 密码&lt;div&gt;enable tinyint 可用状态&lt;/div&gt;&lt;div&gt;points bigint 账户积分&lt;/div&gt;&lt;/div&gt;" style="align=left;strokeColor=none;fillColor=none;spacingLeft=4;fontSize=12;verticalAlign=top;resizable=0;rotatable=0;part=1;html=1;" parent="tTRSB0c5YFFnFM2bXKiH-1" vertex="1">
          <mxGeometry y="50" width="160" height="130" as="geometry" />
        </mxCell>
        <mxCell id="tTRSB0c5YFFnFM2bXKiH-3" value="用户关注表" style="swimlane;childLayout=stackLayout;horizontal=1;startSize=50;horizontalStack=0;rounded=1;fontSize=14;fontStyle=0;strokeWidth=2;resizeParent=0;resizeLast=1;shadow=0;dashed=0;align=center;arcSize=4;whiteSpace=wrap;html=1;" parent="1" vertex="1">
          <mxGeometry x="-230" y="1370" width="170" height="110" as="geometry" />
        </mxCell>
        <mxCell id="tTRSB0c5YFFnFM2bXKiH-4" value="id bigint 主键id&lt;div&gt;follow_id bigint 关注用户uuid&lt;/div&gt;&lt;div&gt;&lt;div&gt;fun_id bigint 被关注用户uuid&lt;/div&gt;&lt;/div&gt;&lt;div&gt;&lt;br&gt;&lt;/div&gt;" style="align=left;strokeColor=none;fillColor=none;spacingLeft=4;fontSize=12;verticalAlign=top;resizable=0;rotatable=0;part=1;html=1;" parent="tTRSB0c5YFFnFM2bXKiH-3" vertex="1">
          <mxGeometry y="50" width="170" height="60" as="geometry" />
        </mxCell>
        <mxCell id="tTRSB0c5YFFnFM2bXKiH-5" value="图片表" style="swimlane;childLayout=stackLayout;horizontal=1;startSize=50;horizontalStack=0;rounded=1;fontSize=14;fontStyle=0;strokeWidth=2;resizeParent=0;resizeLast=1;shadow=0;dashed=0;align=center;arcSize=4;whiteSpace=wrap;html=1;" parent="1" vertex="1">
          <mxGeometry x="-40" y="1370" width="160" height="110" as="geometry" />
        </mxCell>
        <mxCell id="tTRSB0c5YFFnFM2bXKiH-6" value="id bigint 主键id&lt;div&gt;owner_id bigint 根id&lt;/div&gt;&lt;div&gt;image varchar 图片url&lt;/div&gt;" style="align=left;strokeColor=none;fillColor=none;spacingLeft=4;fontSize=12;verticalAlign=top;resizable=0;rotatable=0;part=1;html=1;" parent="tTRSB0c5YFFnFM2bXKiH-5" vertex="1">
          <mxGeometry y="50" width="160" height="60" as="geometry" />
        </mxCell>
        <mxCell id="tTRSB0c5YFFnFM2bXKiH-7" value="用户信息表" style="swimlane;childLayout=stackLayout;horizontal=1;startSize=50;horizontalStack=0;rounded=1;fontSize=14;fontStyle=0;strokeWidth=2;resizeParent=0;resizeLast=1;shadow=0;dashed=0;align=center;arcSize=4;whiteSpace=wrap;html=1;" parent="1" vertex="1">
          <mxGeometry x="-460" y="1425" width="210" height="260" as="geometry" />
        </mxCell>
        <mxCell id="tTRSB0c5YFFnFM2bXKiH-8" value="&lt;div&gt;id bigint 用户信息表id&lt;/div&gt;&lt;div&gt;account_id varchar 用户uuid&lt;/div&gt;&lt;div&gt;sex tinyint 性别&lt;/div&gt;&lt;div&gt;age int 年龄&lt;/div&gt;&lt;div&gt;avatar varchar 头像&lt;/div&gt;&lt;div&gt;birth varchar&amp;nbsp; 生日&amp;nbsp;&lt;/div&gt;&lt;div&gt;address int 三级地址&lt;/div&gt;&lt;div&gt;wx_code varchar 微信账号&lt;/div&gt;&lt;div&gt;douyin_code varchar 抖音账号&lt;/div&gt;&lt;div&gt;qq_code varchar qq账号&lt;/div&gt;&lt;div&gt;email varchar 邮箱&lt;/div&gt;&lt;div&gt;slogan varchar 个人格言&lt;/div&gt;&lt;div&gt;description varchar 个人简介&lt;/div&gt;&lt;div&gt;&lt;br&gt;&lt;/div&gt;" style="align=left;strokeColor=none;fillColor=none;spacingLeft=4;fontSize=12;verticalAlign=top;resizable=0;rotatable=0;part=1;html=1;" parent="tTRSB0c5YFFnFM2bXKiH-7" vertex="1">
          <mxGeometry y="50" width="210" height="210" as="geometry" />
        </mxCell>
        <mxCell id="tTRSB0c5YFFnFM2bXKiH-9" value="动物信息表" style="swimlane;childLayout=stackLayout;horizontal=1;startSize=50;horizontalStack=0;rounded=1;fontSize=14;fontStyle=0;strokeWidth=2;resizeParent=0;resizeLast=1;shadow=0;dashed=0;align=center;arcSize=4;whiteSpace=wrap;html=1;" parent="1" vertex="1">
          <mxGeometry x="160" y="1550" width="190" height="190" as="geometry" />
        </mxCell>
        <mxCell id="tTRSB0c5YFFnFM2bXKiH-10" value="id bigint 主键id&lt;div&gt;animal_id bigint 动物id&lt;/div&gt;&lt;div&gt;name varchar 名称&lt;/div&gt;&lt;div&gt;sex tinyint 性别&lt;/div&gt;&lt;div&gt;age int 年龄&lt;/div&gt;&lt;div&gt;avatar varchar 头像&lt;/div&gt;&lt;div&gt;address int 三级地址&lt;/div&gt;&lt;div&gt;address_detail varchar 详细地址&lt;/div&gt;" style="align=left;strokeColor=none;fillColor=none;spacingLeft=4;fontSize=12;verticalAlign=top;resizable=0;rotatable=0;part=1;html=1;" parent="tTRSB0c5YFFnFM2bXKiH-9" vertex="1">
          <mxGeometry y="50" width="190" height="140" as="geometry" />
        </mxCell>
        <mxCell id="tTRSB0c5YFFnFM2bXKiH-44" style="edgeStyle=orthogonalEdgeStyle;rounded=0;orthogonalLoop=1;jettySize=auto;html=1;entryX=1;entryY=0.5;entryDx=0;entryDy=0;" parent="1" source="tTRSB0c5YFFnFM2bXKiH-11" target="tTRSB0c5YFFnFM2bXKiH-2" edge="1">
          <mxGeometry relative="1" as="geometry" />
        </mxCell>
        <mxCell id="tTRSB0c5YFFnFM2bXKiH-45" style="edgeStyle=orthogonalEdgeStyle;rounded=0;orthogonalLoop=1;jettySize=auto;html=1;exitX=0.75;exitY=0;exitDx=0;exitDy=0;entryX=0;entryY=0.75;entryDx=0;entryDy=0;" parent="1" source="tTRSB0c5YFFnFM2bXKiH-11" target="tTRSB0c5YFFnFM2bXKiH-10" edge="1">
          <mxGeometry relative="1" as="geometry" />
        </mxCell>
        <mxCell id="tTRSB0c5YFFnFM2bXKiH-11" value="帖子表" style="swimlane;childLayout=stackLayout;horizontal=1;startSize=50;horizontalStack=0;rounded=1;fontSize=14;fontStyle=0;strokeWidth=2;resizeParent=0;resizeLast=1;shadow=0;dashed=0;align=center;arcSize=4;whiteSpace=wrap;html=1;" parent="1" vertex="1">
          <mxGeometry y="1790" width="160" height="160" as="geometry" />
        </mxCell>
        <mxCell id="tTRSB0c5YFFnFM2bXKiH-12" value="id bigint 主键id&lt;div&gt;account_id bigint 用户uuid&lt;/div&gt;&lt;div&gt;animal_id bigint 动物id&lt;/div&gt;&lt;div&gt;title varchar 标题&lt;/div&gt;&lt;div&gt;content varcher 内容&lt;/div&gt;&lt;div&gt;is_active tinyint 是否事件帖子&lt;/div&gt;&lt;div&gt;date bigint 日期&lt;/div&gt;&lt;div&gt;&lt;br&gt;&lt;/div&gt;" style="align=left;strokeColor=none;fillColor=none;spacingLeft=4;fontSize=12;verticalAlign=top;resizable=0;rotatable=0;part=1;html=1;" parent="tTRSB0c5YFFnFM2bXKiH-11" vertex="1">
          <mxGeometry y="50" width="160" height="110" as="geometry" />
        </mxCell>
        <mxCell id="tTRSB0c5YFFnFM2bXKiH-13" value="喂食记录表" style="swimlane;childLayout=stackLayout;horizontal=1;startSize=50;horizontalStack=0;rounded=1;fontSize=14;fontStyle=0;strokeWidth=2;resizeParent=0;resizeLast=1;shadow=0;dashed=0;align=center;arcSize=4;whiteSpace=wrap;html=1;" parent="1" vertex="1">
          <mxGeometry x="160" y="1320" width="160" height="160" as="geometry" />
        </mxCell>
        <mxCell id="tTRSB0c5YFFnFM2bXKiH-14" value="&lt;div&gt;id bigint 主键id&lt;div&gt;account_id bigint 用户uuid&lt;/div&gt;&lt;div&gt;animal_id bigint 动物id&lt;/div&gt;&lt;/div&gt;&lt;div&gt;name varchar 食物名称&lt;/div&gt;&lt;div&gt;weight int 食物克重&lt;/div&gt;&lt;div&gt;image_list varchar 投喂图片&lt;/div&gt;" style="align=left;strokeColor=none;fillColor=none;spacingLeft=4;fontSize=12;verticalAlign=top;resizable=0;rotatable=0;part=1;html=1;" parent="tTRSB0c5YFFnFM2bXKiH-13" vertex="1">
          <mxGeometry y="50" width="160" height="110" as="geometry" />
        </mxCell>
        <mxCell id="tTRSB0c5YFFnFM2bXKiH-46" style="edgeStyle=orthogonalEdgeStyle;rounded=0;orthogonalLoop=1;jettySize=auto;html=1;entryX=1;entryY=0.25;entryDx=0;entryDy=0;" parent="1" source="tTRSB0c5YFFnFM2bXKiH-15" target="tTRSB0c5YFFnFM2bXKiH-12" edge="1">
          <mxGeometry relative="1" as="geometry" />
        </mxCell>
        <mxCell id="tTRSB0c5YFFnFM2bXKiH-15" value="评论表" style="swimlane;childLayout=stackLayout;horizontal=1;startSize=50;horizontalStack=0;rounded=1;fontSize=14;fontStyle=0;strokeWidth=2;resizeParent=0;resizeLast=1;shadow=0;dashed=0;align=center;arcSize=4;whiteSpace=wrap;html=1;" parent="1" vertex="1">
          <mxGeometry x="260" y="1760" width="160" height="170" as="geometry" />
        </mxCell>
        <mxCell id="tTRSB0c5YFFnFM2bXKiH-16" value="id bigint 主键id&lt;div&gt;account_id bigint 用户uuid&lt;/div&gt;&lt;div&gt;post_id bigint 帖子id&lt;/div&gt;&lt;div&gt;content varchar 评论内容&lt;/div&gt;&lt;div&gt;date bigint 日期&lt;/div&gt;&lt;div&gt;parentId bigint 根评论id&lt;/div&gt;" style="align=left;strokeColor=none;fillColor=none;spacingLeft=4;fontSize=12;verticalAlign=top;resizable=0;rotatable=0;part=1;html=1;" parent="tTRSB0c5YFFnFM2bXKiH-15" vertex="1">
          <mxGeometry y="50" width="160" height="120" as="geometry" />
        </mxCell>
        <mxCell id="tTRSB0c5YFFnFM2bXKiH-55" value="" style="edgeStyle=orthogonalEdgeStyle;rounded=0;orthogonalLoop=1;jettySize=auto;html=1;" parent="1" source="tTRSB0c5YFFnFM2bXKiH-17" target="tTRSB0c5YFFnFM2bXKiH-16" edge="1">
          <mxGeometry relative="1" as="geometry" />
        </mxCell>
        <mxCell id="tTRSB0c5YFFnFM2bXKiH-17" value="评论点赞表" style="swimlane;childLayout=stackLayout;horizontal=1;startSize=50;horizontalStack=0;rounded=1;fontSize=14;fontStyle=0;strokeWidth=2;resizeParent=0;resizeLast=1;shadow=0;dashed=0;align=center;arcSize=4;whiteSpace=wrap;html=1;" parent="1" vertex="1">
          <mxGeometry x="450" y="1810" width="160" height="120" as="geometry" />
        </mxCell>
        <mxCell id="tTRSB0c5YFFnFM2bXKiH-18" value="id bigint 主键id&lt;div&gt;account_id bigint 用户uuid&lt;/div&gt;&lt;div&gt;comment_id bigint 评论id&lt;/div&gt;" style="align=left;strokeColor=none;fillColor=none;spacingLeft=4;fontSize=12;verticalAlign=top;resizable=0;rotatable=0;part=1;html=1;" parent="tTRSB0c5YFFnFM2bXKiH-17" vertex="1">
          <mxGeometry y="50" width="160" height="70" as="geometry" />
        </mxCell>
        <mxCell id="tTRSB0c5YFFnFM2bXKiH-47" style="edgeStyle=orthogonalEdgeStyle;rounded=0;orthogonalLoop=1;jettySize=auto;html=1;entryX=1;entryY=0.75;entryDx=0;entryDy=0;" parent="1" source="tTRSB0c5YFFnFM2bXKiH-19" target="tTRSB0c5YFFnFM2bXKiH-12" edge="1">
          <mxGeometry relative="1" as="geometry" />
        </mxCell>
        <mxCell id="tTRSB0c5YFFnFM2bXKiH-19" value="帖子收藏表" style="swimlane;childLayout=stackLayout;horizontal=1;startSize=50;horizontalStack=0;rounded=1;fontSize=14;fontStyle=0;strokeWidth=2;resizeParent=0;resizeLast=1;shadow=0;dashed=0;align=center;arcSize=4;whiteSpace=wrap;html=1;" parent="1" vertex="1">
          <mxGeometry x="230" y="1975" width="160" height="120" as="geometry" />
        </mxCell>
        <mxCell id="tTRSB0c5YFFnFM2bXKiH-20" value="id bigint 主键id&lt;div&gt;&lt;div&gt;account_id bigint 用户uuid&lt;/div&gt;&lt;/div&gt;&lt;div&gt;post_id bigint 帖子id&lt;br&gt;&lt;/div&gt;" style="align=left;strokeColor=none;fillColor=none;spacingLeft=4;fontSize=12;verticalAlign=top;resizable=0;rotatable=0;part=1;html=1;" parent="tTRSB0c5YFFnFM2bXKiH-19" vertex="1">
          <mxGeometry y="50" width="160" height="70" as="geometry" />
        </mxCell>
        <mxCell id="tTRSB0c5YFFnFM2bXKiH-48" value="" style="edgeStyle=orthogonalEdgeStyle;rounded=0;orthogonalLoop=1;jettySize=auto;html=1;" parent="1" source="tTRSB0c5YFFnFM2bXKiH-21" target="tTRSB0c5YFFnFM2bXKiH-12" edge="1">
          <mxGeometry relative="1" as="geometry" />
        </mxCell>
        <mxCell id="tTRSB0c5YFFnFM2bXKiH-21" value="帖子点赞表" style="swimlane;childLayout=stackLayout;horizontal=1;startSize=50;horizontalStack=0;rounded=1;fontSize=14;fontStyle=0;strokeWidth=2;resizeParent=0;resizeLast=1;shadow=0;dashed=0;align=center;arcSize=4;whiteSpace=wrap;html=1;" parent="1" vertex="1">
          <mxGeometry y="1980" width="160" height="120" as="geometry" />
        </mxCell>
        <mxCell id="tTRSB0c5YFFnFM2bXKiH-22" value="id bigint 主键id&lt;div&gt;account_id bigint 用户uuid&lt;/div&gt;&lt;div&gt;post_id bigint 帖子id&lt;/div&gt;" style="align=left;strokeColor=none;fillColor=none;spacingLeft=4;fontSize=12;verticalAlign=top;resizable=0;rotatable=0;part=1;html=1;" parent="tTRSB0c5YFFnFM2bXKiH-21" vertex="1">
          <mxGeometry y="50" width="160" height="70" as="geometry" />
        </mxCell>
        <mxCell id="tTRSB0c5YFFnFM2bXKiH-49" style="edgeStyle=orthogonalEdgeStyle;rounded=0;orthogonalLoop=1;jettySize=auto;html=1;entryX=0;entryY=0.75;entryDx=0;entryDy=0;" parent="1" source="tTRSB0c5YFFnFM2bXKiH-24" target="tTRSB0c5YFFnFM2bXKiH-12" edge="1">
          <mxGeometry relative="1" as="geometry" />
        </mxCell>
        <mxCell id="tTRSB0c5YFFnFM2bXKiH-50" style="edgeStyle=orthogonalEdgeStyle;rounded=0;orthogonalLoop=1;jettySize=auto;html=1;entryX=1;entryY=0.5;entryDx=0;entryDy=0;" parent="1" source="tTRSB0c5YFFnFM2bXKiH-24" target="tTRSB0c5YFFnFM2bXKiH-31" edge="1">
          <mxGeometry relative="1" as="geometry" />
        </mxCell>
        <mxCell id="tTRSB0c5YFFnFM2bXKiH-24" value="活动状态表" style="swimlane;childLayout=stackLayout;horizontal=1;startSize=50;horizontalStack=0;rounded=1;fontSize=14;fontStyle=0;strokeWidth=2;resizeParent=0;resizeLast=1;shadow=0;dashed=0;align=center;arcSize=4;whiteSpace=wrap;html=1;" parent="1" vertex="1">
          <mxGeometry x="-230" y="1975" width="170" height="130" as="geometry" />
        </mxCell>
        <mxCell id="tTRSB0c5YFFnFM2bXKiH-25" value="id bigint 主键id&lt;div&gt;account_id bigint 用户uuid&lt;/div&gt;&lt;div&gt;post_id bigint 帖子id&lt;/div&gt;&lt;div&gt;chat_group_id bigint 消息表id&lt;/div&gt;&lt;div&gt;status int 活动状态&lt;/div&gt;" style="align=left;strokeColor=none;fillColor=none;spacingLeft=4;fontSize=12;verticalAlign=top;resizable=0;rotatable=0;part=1;html=1;" parent="tTRSB0c5YFFnFM2bXKiH-24" vertex="1">
          <mxGeometry y="50" width="170" height="80" as="geometry" />
        </mxCell>
        <mxCell id="tTRSB0c5YFFnFM2bXKiH-54" value="" style="edgeStyle=orthogonalEdgeStyle;rounded=0;orthogonalLoop=1;jettySize=auto;html=1;" parent="1" source="tTRSB0c5YFFnFM2bXKiH-26" target="tTRSB0c5YFFnFM2bXKiH-25" edge="1">
          <mxGeometry relative="1" as="geometry" />
        </mxCell>
        <mxCell id="tTRSB0c5YFFnFM2bXKiH-26" value="活动参与表" style="swimlane;childLayout=stackLayout;horizontal=1;startSize=50;horizontalStack=0;rounded=1;fontSize=14;fontStyle=0;strokeWidth=2;resizeParent=0;resizeLast=1;shadow=0;dashed=0;align=center;arcSize=4;whiteSpace=wrap;html=1;" parent="1" vertex="1">
          <mxGeometry x="-450" y="2010" width="160" height="110" as="geometry" />
        </mxCell>
        <mxCell id="tTRSB0c5YFFnFM2bXKiH-27" value="id bigint 主键id&lt;div&gt;active_id bigint 活动id&lt;br&gt;&lt;div&gt;account_id bigint 用户uuid&lt;/div&gt;&lt;/div&gt;" style="align=left;strokeColor=none;fillColor=none;spacingLeft=4;fontSize=12;verticalAlign=top;resizable=0;rotatable=0;part=1;html=1;" parent="tTRSB0c5YFFnFM2bXKiH-26" vertex="1">
          <mxGeometry y="50" width="160" height="60" as="geometry" />
        </mxCell>
        <mxCell id="tTRSB0c5YFFnFM2bXKiH-28" value="领养记录表" style="swimlane;childLayout=stackLayout;horizontal=1;startSize=50;horizontalStack=0;rounded=1;fontSize=14;fontStyle=0;strokeWidth=2;resizeParent=0;resizeLast=1;shadow=0;dashed=0;align=center;arcSize=4;whiteSpace=wrap;html=1;" parent="1" vertex="1">
          <mxGeometry x="390" y="1550" width="190" height="170" as="geometry" />
        </mxCell>
        <mxCell id="tTRSB0c5YFFnFM2bXKiH-29" value="id bigint 主键id&lt;div&gt;account_id bigint 用户uuid&lt;/div&gt;&lt;div&gt;animal_id bigint 动物id&lt;/div&gt;&lt;div&gt;image_list varchar 材料图片&lt;/div&gt;&lt;div&gt;address int 三级地址&lt;/div&gt;&lt;div&gt;address_detail varchar 详细地址&lt;/div&gt;&lt;div&gt;status int 领养状态&lt;/div&gt;" style="align=left;strokeColor=none;fillColor=none;spacingLeft=4;fontSize=12;verticalAlign=top;resizable=0;rotatable=0;part=1;html=1;" parent="tTRSB0c5YFFnFM2bXKiH-28" vertex="1">
          <mxGeometry y="50" width="190" height="120" as="geometry" />
        </mxCell>
        <mxCell id="tTRSB0c5YFFnFM2bXKiH-51" style="edgeStyle=orthogonalEdgeStyle;rounded=0;orthogonalLoop=1;jettySize=auto;html=1;entryX=0;entryY=0.75;entryDx=0;entryDy=0;" parent="1" source="tTRSB0c5YFFnFM2bXKiH-30" target="tTRSB0c5YFFnFM2bXKiH-2" edge="1">
          <mxGeometry relative="1" as="geometry" />
        </mxCell>
        <mxCell id="tTRSB0c5YFFnFM2bXKiH-30" value="消息表" style="swimlane;childLayout=stackLayout;horizontal=1;startSize=50;horizontalStack=0;rounded=1;fontSize=14;fontStyle=0;strokeWidth=2;resizeParent=0;resizeLast=1;shadow=0;dashed=0;align=center;arcSize=4;whiteSpace=wrap;html=1;" parent="1" vertex="1">
          <mxGeometry x="-335" y="1770" width="160" height="130" as="geometry" />
        </mxCell>
        <mxCell id="tTRSB0c5YFFnFM2bXKiH-31" value="id bigint 主键id&lt;div&gt;title varchar 消息主题&lt;/div&gt;&lt;div&gt;avatar varchar 消息头像&lt;/div&gt;&lt;div&gt;account_id bigint 用户uuid&lt;/div&gt;" style="align=left;strokeColor=none;fillColor=none;spacingLeft=4;fontSize=12;verticalAlign=top;resizable=0;rotatable=0;part=1;html=1;" parent="tTRSB0c5YFFnFM2bXKiH-30" vertex="1">
          <mxGeometry y="50" width="160" height="80" as="geometry" />
        </mxCell>
        <mxCell id="tTRSB0c5YFFnFM2bXKiH-33" value="聊天记录表" style="swimlane;childLayout=stackLayout;horizontal=1;startSize=50;horizontalStack=0;rounded=1;fontSize=14;fontStyle=0;strokeWidth=2;resizeParent=0;resizeLast=1;shadow=0;dashed=0;align=center;arcSize=4;whiteSpace=wrap;html=1;" parent="1" vertex="1">
          <mxGeometry x="-560" y="1770" width="170" height="130" as="geometry" />
        </mxCell>
        <mxCell id="tTRSB0c5YFFnFM2bXKiH-34" value="id bigint 主键id&lt;div&gt;account_id bigint 用户uuid&lt;/div&gt;&lt;div&gt;chat_group_id bigint 消息表id&lt;/div&gt;&lt;div&gt;content varchar 聊天内容&lt;/div&gt;" style="align=left;strokeColor=none;fillColor=none;spacingLeft=4;fontSize=12;verticalAlign=top;resizable=0;rotatable=0;part=1;html=1;" parent="tTRSB0c5YFFnFM2bXKiH-33" vertex="1">
          <mxGeometry y="50" width="170" height="80" as="geometry" />
        </mxCell>
        <mxCell id="tTRSB0c5YFFnFM2bXKiH-36" style="edgeStyle=orthogonalEdgeStyle;rounded=0;orthogonalLoop=1;jettySize=auto;html=1;entryX=0;entryY=0;entryDx=0;entryDy=0;" parent="1" source="tTRSB0c5YFFnFM2bXKiH-8" target="tTRSB0c5YFFnFM2bXKiH-2" edge="1">
          <mxGeometry relative="1" as="geometry">
            <Array as="points">
              <mxPoint x="-170" y="1640" />
              <mxPoint x="-170" y="1640" />
            </Array>
          </mxGeometry>
        </mxCell>
        <mxCell id="tTRSB0c5YFFnFM2bXKiH-37" style="edgeStyle=orthogonalEdgeStyle;rounded=0;orthogonalLoop=1;jettySize=auto;html=1;exitX=0.5;exitY=1;exitDx=0;exitDy=0;entryX=0.5;entryY=0;entryDx=0;entryDy=0;" parent="1" source="tTRSB0c5YFFnFM2bXKiH-6" target="tTRSB0c5YFFnFM2bXKiH-1" edge="1">
          <mxGeometry relative="1" as="geometry" />
        </mxCell>
        <mxCell id="tTRSB0c5YFFnFM2bXKiH-38" style="edgeStyle=orthogonalEdgeStyle;rounded=0;orthogonalLoop=1;jettySize=auto;html=1;exitX=0.5;exitY=1;exitDx=0;exitDy=0;entryX=0.25;entryY=0;entryDx=0;entryDy=0;" parent="1" source="tTRSB0c5YFFnFM2bXKiH-4" target="tTRSB0c5YFFnFM2bXKiH-1" edge="1">
          <mxGeometry relative="1" as="geometry" />
        </mxCell>
        <mxCell id="tTRSB0c5YFFnFM2bXKiH-40" style="edgeStyle=orthogonalEdgeStyle;rounded=0;orthogonalLoop=1;jettySize=auto;html=1;exitX=0.5;exitY=1;exitDx=0;exitDy=0;entryX=0.5;entryY=0;entryDx=0;entryDy=0;" parent="1" source="tTRSB0c5YFFnFM2bXKiH-14" target="tTRSB0c5YFFnFM2bXKiH-9" edge="1">
          <mxGeometry relative="1" as="geometry" />
        </mxCell>
        <mxCell id="tTRSB0c5YFFnFM2bXKiH-41" style="edgeStyle=orthogonalEdgeStyle;rounded=0;orthogonalLoop=1;jettySize=auto;html=1;exitX=1;exitY=0.5;exitDx=0;exitDy=0;entryX=0;entryY=0.25;entryDx=0;entryDy=0;" parent="1" source="tTRSB0c5YFFnFM2bXKiH-6" target="tTRSB0c5YFFnFM2bXKiH-10" edge="1">
          <mxGeometry relative="1" as="geometry">
            <Array as="points">
              <mxPoint x="140" y="1450" />
              <mxPoint x="140" y="1650" />
            </Array>
          </mxGeometry>
        </mxCell>
        <mxCell id="tTRSB0c5YFFnFM2bXKiH-43" style="edgeStyle=orthogonalEdgeStyle;rounded=0;orthogonalLoop=1;jettySize=auto;html=1;exitX=0;exitY=0.5;exitDx=0;exitDy=0;entryX=1;entryY=0.25;entryDx=0;entryDy=0;" parent="1" source="tTRSB0c5YFFnFM2bXKiH-28" target="tTRSB0c5YFFnFM2bXKiH-10" edge="1">
          <mxGeometry relative="1" as="geometry" />
        </mxCell>
        <mxCell id="tTRSB0c5YFFnFM2bXKiH-52" value="" style="edgeStyle=orthogonalEdgeStyle;rounded=0;orthogonalLoop=1;jettySize=auto;html=1;" parent="1" source="tTRSB0c5YFFnFM2bXKiH-34" target="tTRSB0c5YFFnFM2bXKiH-31" edge="1">
          <mxGeometry relative="1" as="geometry" />
        </mxCell>
        <mxCell id="N6WB7kkCT40i5u8ldYaK-1" style="edgeStyle=orthogonalEdgeStyle;rounded=0;orthogonalLoop=1;jettySize=auto;html=1;exitX=0.75;exitY=1;exitDx=0;exitDy=0;entryX=0.625;entryY=0.018;entryDx=0;entryDy=0;entryPerimeter=0;" parent="1" source="tTRSB0c5YFFnFM2bXKiH-6" target="tTRSB0c5YFFnFM2bXKiH-11" edge="1">
          <mxGeometry relative="1" as="geometry" />
        </mxCell>
      </root>
    </mxGraphModel>
  </diagram>
</mxfile>
